Coordinates
version=1
nRows=12
nColumns=24
inDegrees=yes

Units are S.I. units (second, meters, Newtons, ...)
Angles are in degrees.

endheader
time	pelvis_tilt	pelvis_list	pelvis_rotation	pelvis_tx	pelvis_ty	pelvis_tz	hip_flexion_r	hip_adduction_r	hip_rotation_r	knee_angle_r	ankle_angle_r	subtalar_angle_r	mtp_angle_r	hip_flexion_l	hip_adduction_l	hip_rotation_l	knee_angle_l	ankle_angle_l	subtalar_angle_l	mtp_angle_l	lumbar_extension	lumbar_bending	lumbar_rotation
      2.85500000	      8.40746466	     12.00899714	     -1.72721777	     -0.33365235	      0.99746423	     -0.00648083	     18.91033194	    -13.84711517	     -7.58999036	    -26.76587923	      2.96800994	     -3.81806816	      2.92504678	     -9.57385886	     15.08303393	     -7.23765452	     -9.82501731	     10.71083519	      4.80381115	     19.36119210	    -21.80134230	    -13.95618316	      1.85541643
      2.86000000	      8.42663064	     12.08305741	     -1.59681672	     -0.32857968	      0.99691689	     -0.00643858	     18.57151413	    -13.87303325	     -8.09508988	    -24.78076316	      2.39207621	     -3.20293985	      2.68603107	     -9.99146506	     15.13216169	     -7.01186616	     -9.75441633	     10.95615529	      4.87502772	     19.07587922	    -21.84270802	    -14.00181635	      1.64635558
      2.86500000	      8.36487726	     12.18636564	     -1.43420486	     -0.32360018	      0.99618916	     -0.00641185	     18.32874837	    -13.92302678	     -8.58834540	    -22.82484070	      1.81676046	     -2.54922876	      2.53099231	    -10.27563775	     15.19924423	     -6.75534175	     -9.77625315	     11.29903081	      4.95965092	     18.89924219	    -21.81286785	    -14.07288658	      1.42558291
      2.87000000	      8.36386245	     12.29048862	     -1.28779919	     -0.31854041	      0.99551899	     -0.00633306	     17.99497417	    -13.96865410	     -9.11716837	    -20.85689675	      1.29039536	     -1.81776925	      2.39871104	    -10.65452381	     15.26761086	     -6.51421337	     -9.74459475	     11.58359381	      5.02166141	     18.65782573	    -21.84508619	    -14.14755957	      1.17771859
      2.87500000	      8.31366229	     12.40921116	     -1.14061445	     -0.31349564	      0.99473011	     -0.00621972	     17.72071538	    -14.01409186	     -9.61075480	    -18.92089414	      0.80278757	     -1.04907494	      2.30039230	    -10.96332291	     15.34529070	     -6.27969933	     -9.74450131	     11.88469913	      5.09622210	     18.42399218	    -21.82423542	    -14.24141913	      0.94384105
      2.88000000	      8.25674135	     12.53466555	     -0.99663393	     -0.30844090	      0.99388876	     -0.00607964	     17.45308746	    -14.05715419	    -10.09750148	    -17.01711090	      0.36334039	     -0.23181682	      2.23108894	    -11.26216631	     15.42746325	     -6.04364636	     -9.75109913	     12.19127179	      5.16519447	     18.19395444	    -21.79747829	    -14.34349500	      0.71477675
      2.88500000	      8.16713323	     12.67439997	     -0.85285778	     -0.30338377	      0.99296191	     -0.00590894	     17.23330359	    -14.10531748	    -10.56190458	    -15.17483694	     -0.02340425	      0.61353523	      2.18285550	    -11.51866393	     15.52062597	     -5.81605360	     -9.77078367	     12.49843358	      5.22924598	     17.97414468	    -21.73761809	    -14.46460502	      0.48152301
      2.89000000	      8.08019769	     12.82269133	     -0.70759118	     -0.29831582	      0.99201339	     -0.00571592	     17.01656149	    -14.15756464	    -11.01844873	    -13.39618174	     -0.34793072	      1.49472672	      2.14744019	    -11.77627451	     15.61880450	     -5.58254458	     -9.79771863	     12.79729099	      5.29025073	     17.74144052	    -21.68239190	    -14.59386234	      0.23978995
      2.89500000	      7.96550778	     12.97702742	     -0.57107287	     -0.29325507	      0.99097209	     -0.00548522	     16.85553220	    -14.20645612	    -11.44028088	    -11.71274929	     -0.61127373	      2.37821797	      2.11933058	    -11.99452629	     15.72251197	     -5.36399358	     -9.83940803	     13.10656482	      5.34575144	     17.53226200	    -21.59739258	    -14.73525792	      0.02636802
      2.90000000	      7.81248616	     13.11213408	     -0.42221871	     -0.28816969	      0.98987903	     -0.00526227	     16.74634467	    -14.23340006	    -11.84877490	    -10.12505251	     -0.82013132	      3.25973449	      2.09577099	    -12.16580070	     15.80166052	     -5.14525110	     -9.89805279	     13.39012473	      5.41893180	     17.37026642	    -21.46762351	    -14.85255849	     -0.16393498
      2.90500000	      7.78624345	     13.27923898	     -0.29414210	     -0.28309804	      0.98892977	     -0.00500810	     16.52100806	    -14.29928174	    -12.27060879	     -8.64345750	     -0.96696312	      4.14923077	      2.02124791	    -12.48935892	     15.91658051	     -4.87663516	     -9.92574012	     13.67754530	      5.39870023	     16.94549891	    -21.48904230	    -14.99812639	     -0.42927822
      2.91000000	      7.59495539	     13.43984469	     -0.15336682	     -0.27805320	      0.98772451	     -0.00473755	     16.53640822	    -14.35193403	    -12.62879751	     -7.34506770	     -1.05034955	      4.98887824	      1.98606150	    -12.59737554	     16.01882458	     -4.68082018	    -10.02513891	     14.04172121	      5.50836541	     16.80470639	    -21.32648425	    -15.14846991	     -0.62151177
